#!OML:ASF H:\Terrain\Patient Classification 1\Walking\steve\steve.ASF
:FULLY-SPECIFIED
:DEGREES
121
root 7.0293 15.976 -6.9133 9.20782 -3.95846 -5.37125
lowerback 1.77668 4.96954 7.15976
upperback -1.06463 6.8586 2.74833
thorax -1.59922 3.3498 -1.32522
lowerneck -8.34625 -1.95269 0.109242
upperneck 14.1422 -2.61233 -0.2908
head 5.6355 -1.28162 -0.298312
rclavicle -2.72335e-014 -7.95139e-016
rhumerus 3.43586 8.41843 -80.5071
rradius 38.5717
rwrist -19.8185
rhand -20.9867 -38.5262
rfingers 7.12502
rthumb 5.38719 -68.4378
lclavicle -2.72335e-014 -7.95139e-016
lhumerus -53.5888 3.7052 71.4553
lradius 14.8107
lwrist -1.88869
lhand -14.7451 -10.2526
lfingers 7.12502
lthumb 11.4106 19.4169
rfemur -8.2387 0.0457685 29.103
rtibia 35.2093
rfoot -16.4083 17.8349
rtoes -3.37557
lfemur -43.8648 2.37173 -15.4462
ltibia 43.2221
lfoot -21.1902 4.90595
ltoes -17.6781
122
root 7.03514 15.9913 -6.66799 9.24434 -4.26802 -5.83826
lowerback 2.29982 5.3019 7.01732
upperback -1.62579 7.39388 2.91543
thorax -2.4768 3.58165 -1.17386
lowerneck -8.21417 -2.15086 -0.259712
upperneck 14.7499 -2.84699 -0.176878
head 5.81001 -1.40478 -0.222376
rclavicle 5.56597e-015 5.56597e-015
rhumerus 4.2307 9.39524 -79.5354
rradius 39.1915
rwrist -20.6951
rhand -18.5102 -35.7726
rfingers 7.12502
rthumb 7.77787 -65.6096
lclavicle 5.56597e-015 5.56597e-015
lhumerus -56.4743 3.43886 69.7654
lradius 14.583
lwrist -3.67607
lhand -14.5601 -10.4357
lfingers 7.12502
lthumb 11.589 19.2238
rfemur -6.51071 0.192781 29.4465
rtibia 33.5598
rfoot -15.7775 17.457
rtoes -3.88727
lfemur -44.7516 2.49227 -14.6673
ltibia 41.1687
lfoot -20.642 5.55881
ltoes -18.0347
123
root 7.04398 15.9954 -6.41853 9.29484 -4.78073 -6.49453
lowerback 2.16721 5.63053 7.61725
upperback -1.55307 7.8251 2.70737
thorax -2.19188 3.79413 -1.69157
lowerneck -8.62087 -2.25989 -0.2832
upperneck 14.8955 -3.05293 0.215118
head 5.93274 -1.47542 -0.117171
rclavicle 2.13694e-014 3.97569e-015
rhumerus 6.14632 9.94722 -79.0271
rradius 39.708
rwrist -21.4661
rhand -18.772 -36.553
rfingers 7.12502
rthumb 7.52522 -66.3991
lclavicle 2.13694e-014 3.97569e-015
lhumerus -58.2773 3.12505 67.6509
lradius 14.4954
lwrist -4.65842
lhand -14.0911 -10.9694
lfingers 7.12502
lthumb 12.0412 18.6642
rfemur -4.80342 0.629843 29.9646
rtibia 32.031
rfoot -15.2337 16.9848
rtoes -4.19317
lfemur -45.5658 2.5865 -13.5194
ltibia 39.0685
lfoot -20.9206 6.31867
ltoes -17.714
124
root 7.05498 16 -6.16249 9.2748 -5.17936 -6.73973
lowerback 1.84605 5.8082 7.78325
upperback -1.17634 7.99576 2.28987
thorax -1.52409 3.90614 -2.14092
lowerneck -10.0717 -2.20358 0.553331
upperneck 15.3077 -3.11209 0.175089
head 6.29992 -1.4537 -0.293888
rclavicle -7.37491e-014 -3.89618e-014
rhumerus 8.62856 10.1728 -78.7252
rradius 40.1307
rwrist -21.4765
rhand -19.0612 -36.3985
rfingers 7.12502
rthumb 7.24611 -66.2545
lclavicle -7.37491e-014 -3.89618e-014
lhumerus -59.5 3.01748 65.2749
lradius 14.2279
lwrist -5.15889
lhand -14.4312 -11.1544
lfingers 7.12502
lthumb 11.7133 18.4981
rfemur -3.10583 0.609964 29.9494
rtibia 30.5912
rfoot -14.3607 17.176
rtoes -3.45681
lfemur -46.0901 2.6362 -12.9706
ltibia 36.9152
lfoot -21.0715 7.41372
ltoes -16.5453
125
root 7.0642 16.0128 -5.90672 9.18679 -5.51607 -6.35684
lowerback 1.65235 6.40677 7.42387
upperback -1.58567 8.78818 2.06867
thorax -1.78697 4.28792 -2.17972
lowerneck -8.42537 -2.6905 -0.508705
upperneck 15.0365 -3.69451 0.78304
head 5.96078 -1.75553 0.0510949
rclavicle -2.34566e-014 -3.18055e-015
rhumerus 9.06383 9.8384 -77.3566
rradius 40.5844
rwrist -21.7004
rhand -20.3413 -36.6683
rfingers 7.12502
rthumb 6.0103 -66.563
lclavicle -2.34566e-014 -3.18055e-015
lhumerus -61.9645 1.62474 63.6864
lradius 13.9784
lwrist -6.05825
lhand -14.848 -10.5206
lfingers 7.12502
lthumb 11.3114 19.1544
rfemur -1.46454 0.190338 29.1673
rtibia 29.1516
rfoot -13.1816 17.7206
rtoes -2.37146
lfemur -46.4606 2.23832 -12.9855
ltibia 34.8377
lfoot -21.2489 8.87482
ltoes -15.3283
126
root 7.07219 16.0111 -5.66261 9.11931 -5.87839 -6.48895
lowerback 1.68116 6.71482 7.32171
upperback -2.08384 9.23038 1.97095
thorax -2.28252 4.48185 -2.26695
lowerneck -6.63796 -2.78533 -0.784731
upperneck 14.6842 -3.81793 1.00684
head 5.55384 -1.82432 0.187809
rclavicle -7.97623e-014 -3.85642e-014
rhumerus 9.69424 10.3483 -76.5802
rradius 40.8651
rwrist -22.305
rhand -20.726 -36.7147
rfingers 7.12502
rthumb 5.63892 -66.6197
lclavicle -7.97623e-014 -3.85642e-014
lhumerus -64.5637 1.81273 59.8507
lradius 13.7781
lwrist -8.70377
lhand -14.3671 -10.6199
lfingers 7.12502
lthumb 11.7751 19.029
rfemur 0.0826147 0.0413554 28.9899
rtibia 27.819
rfoot -12.1233 17.9061
rtoes -1.68403
lfemur -46.8999 1.89867 -12.2674
ltibia 32.8416
lfoot -21.9573 9.78242
ltoes -14.6918
